<svg xmlns:xlink="http://www.w3.org/1999/xlink" viewBox="0 0 637 299" xmlns="http://www.w3.org/2000/svg" fill-rule="evenodd" clip-rule="evenodd" stroke-linejoin="round" stroke-miterlimit="1.414" width="637"  height="299" ><path fill="none" d="M0 0h636.68v298.844H0z"/><path d="M169.398 75.385c37.908-28.544 83.344-28.64 127.586-18.71 12.836 2.881 23.347 8.35 33.93 16.254 12.528 9.356 31.066 32.554 31.066 32.554s10.802-2.924 19.17 4.935c6.33 5.945 12.365 13.152 10.926 22.936 20.425 7.484 46.339-7.17 54.196-26.05 8.976-21.566 13.764-46.429 13.693-69.668-.029-9.535-13.722-8.166-6.599-24.298 1.913-4.333 4.917-8.856 10.006-10.371 8.871-2.639 17.68-2.589 26.598-.027 8.469 2.432 9.31 10.703 9.676 17.667.304 5.772-8.565 15.868-8.565 15.868s.425 41.97-9.688 67.38c-1.069 2.687.691 4.884 2.783 5.368 2.913.673 5.58.621 7.33 3.355 4.453-3.71 4.519-8.233 4.362-10.708-.336-5.333 2.845-5.397 5.164-9.736 6.339-11.86 21.967-12.006 31.537-4.186 8.208 6.708 13.019 20.962 1.75 28.756-4.894 3.385-17.044 1.571-17.044 1.571s-10.315 10.682-.445 11.184c25.505 1.298 48.372 2.368 72.648 3.246 4.885.177 4.325-8.072 8.983-9.372 5.753-1.606 11.871-3.457 17.57-1.462 16.985 5.946 23.693 32.425 10.79 42.514-12.509 9.782-34.11-6.387-34.11-6.387s-43.107.853-65.216 2.812c1.466 4.017 8.958 5.493 11.32 7.95 3.142 3.27 8.009 8.079 8.009 8.079s6.181-1.982 10.16.929c8.302 6.074 7.907 17.972 2.47 25.096-7.76 10.17-26.505 14.02-34.275 3.472-2.411-3.272-1.805-11.13-1.805-11.13s-2.814-2.63-5.29-3.642c-1.636-.668-5.371-1.287-5.275 1.134.377 9.398-2.939 19.597-11.171 23.176-5.217 2.268-11.317 3.218-17.521 1.928-4.134-.86-6.985-7.712-9.672-5.04-14.122 14.046-18.848 34.198-33.742 47.847-17.778 16.292-40.021 21.563-63.492 23.894-36.574 3.63-73.028-12.98-107.914 1.21-14.356 5.839-28.548 7.535-43.581 10.024-8.687 1.438-17.373 2.246-26.691-.146-28.688-7.363-54.183-19.792-83.103-23.227-19.75-2.345-39.425-1.735-59.17-3.388-10.02-.837-20.13-4.574-29.412-8.757-15.049-6.781-33.894-24.228-21.106-39.536 10.478-12.542 30.379-5.016 45.844-10.564 3.999-1.435 8.151-2.502 11.754-4.517 11.944-6.684 21.848-15.128 34.454-20.165 6.284-2.511 17.138-.122 17.621-6.204 3.214-40.539 20.042-78.664 53.491-103.848zM234.97 281.05c13.651-3.613 26.336-9.38 39.924-10.293 36.667-2.466 73.112 10.505 109.349.59 32.992-9.026 68.596-29.051 71.318-65.41.166-2.201-12.316-11.296-15.268-4.02-2.326 5.73 8.672 12.804-.91 15.334-4.531 1.196-7.518-6.12-11.667-5.992-1.918.059-5.964 3.184-4.116 6.488 2.132 3.81 9.572 7.219 6.46 11.649-3.529 5.027-7.486-.754-11.55-3.635-3.742-2.653-7.464 1.869-5.318 5.332 2.875 4.646 10.826 9.04 5.067 12.742-3.456 2.222-7.867-1.775-11.595-4.801-1.817-1.476-2.617 1.813-4.199 2.657 2.518 4.433 9.234 7.6 5.216 11.027-4.175 3.56-9.026-4.517-14.293-7.782-1.158-.72-4.253-.716-3.805 1.09 1.426 5.748 8.411 10.397 4.642 14.128-4.295 4.25-7.38-5.622-12.569-8.004-1.355-.622-2.663.35-2.712 1.423-.163 3.579 4.796 7.273 2.232 9.874-6.167 6.253-10.947-4.26-15.813-8.4-.749 2.219-5.467.749-4.329 4.415.363 1.169 1.903 1.289 2.575 1.848 2.499 2.079 2.424 6.054.031 8.326-.797.758-2.932.683-4.093.038-5.051-2.802-3.948-11.102-9.203-12.431-6.27-1.587-1.102 6.605-4.608 9.229-2.768 2.069-7.437-.358-8.175-4.082-.102-.515 1.558-1.454 1.062-2.88-.997-2.863-4.841-.164-5.908-2.98-3.035 2.8.507 9.11-4.525 9.954-6.772 1.133-3.168-9.391-8.988-10.773-6.101-1.448-.084 6.74-4.325 8.153-6.693 2.229-5.283-7.156-10.456-8.417-.728-.176-2.074 1.43-2.762 2.632-.741 1.292.552 1.97 1.239 2.997.831 1.242-.226 2.353-1.386 2.778-8.217 3.01-4.586-9.364-10.369-9.493-3.744-.084-1.655 7.224-3.602 8.773-6.221 4.95-6.746-4.87-9.736-9.57-.989.99-2.404 1.834-2.746 3.032-.667 2.332.619 5.674-.644 6.937-1.262 1.26-4.526.42-6.999.42.189-3.458.263-8.606-2.811-8.042-4.379.803 1.221 11.342-5.995 9.194-3.066-.914-3.753-6.848-5.79-6.251-4.014 1.174.07 7.759-2.221 10.647-5.598 7.059-8.944-7.406-14.071-6.011-4.283 1.166-.871 7.926-1.762 12.337-1.939-.868-2.513 2.409-4.44 1.46-5.728-2.817-4.92-12.555-11.784-11.3-4.762.87-3.245 6.359-6.303 9.587-.718.757-3.492.647-3.781.055-1.677-3.438-3.381-6.887-6.517-8.323-6.797-3.114-3.946 5.129-7.469 8.268-.847.756-2.867.596-4.159.08-6.259-2.496-2.11-13.447-8.876-12.5-5.048.707-4.677 13.906-9.773 6.262-2.425-3.635 1.465-14.305-6.539-12.417-3.268.77-2.397 7.283-7.523 6.874-3.673-.292-3.753-5.374-7.428-5.855 1.45-4.31 1.077-6.725-3.101-8.608-5.602-2.527-5.831 5.45-9.063 8.273-1.151 1.005-4.009.986-5.418.009-4.969-3.444-2.089-12.02-7.662-12.111-4.193-.068-4.343 9.489-10.338 9.022-5.591-.435-.721-7.851-4.614-9.668-6.978-3.261-6.387 5.05-10.57 8.223-1.177.894-4.75 1.63-5.295-1.142-.671-3.416-.018-9.522-4.644-8.304-3.778.995-6.149 9.503-10.194 3.686-1.672-2.405 1.517-6.811-1.972-8.317-4.283-1.85-5.492 4.59-7.682 6.616-1.826 1.689-5.73-.476-6.537-2.69-1.197-3.28 3.117-8.931-2.033-9.594-4.973-.641-5.168 6.109-7.761 9.438-3.098 3.977-9.821.397-7.668-3.695 2.75-5.225 6.204-10.31.516-10.954-6.266-.711-10.073 14.117-18.808 7.14-.998-.795-.025-3.552-.486-5.482-.282-1.182-1.453-2.136-2.76-1.422-4.904 2.682-4.066 9.385-1.124 12.91 5.68 6.805 13.412 11.15 21.99 13.049 34.764 7.697 68.857 2.94 101.857 13.749 16.056 5.26 31.245 12.655 47.968 14.3 13.293 1.306 26.941 2.112 40.195-1.396zm286.316-176.092c1.211.596 3.005.552 4.282.022 2.975-1.234 4.126-4.428 2.739-7.085-2.878-5.517-12.294-9.625-15.269-2.798-2.182 5.005 3.995 7.77 8.248 9.861zm-49.792-5.518c9.255-29.53 8.608-70.469 8.608-70.469s6.938-3.336 8.02-7.043c2.185-7.499-7.328-12.726-14.353-11.386-3.072.586-5.825 2.858-7.218 5.687-2.87 5.821 4.988 10.798 4.988 10.798s-1.921 49.191-11.936 80.407c-1.01 3.152 1.481 6.257 3.708 6.628 2.226.37 6.455-9.11 8.183-14.622zm-352.65 107.33c-.675-3.733-3.289-6.624-4.929-6.523-15.82.984-26.095 14.792-40.023 21.656-2.077 1.023-4.222 3.079-2.855 5.627 1.158 2.154 3.924 3.013 5.967 4.118 8.104 4.379 17.619.164 26.812 4.109 7.46 3.202 16.475 3.695 24.853.687 1.16-.417 2.237-1.565 1.375-2.76-2.2-3.046-3.775-6.283-5.163-9.297-2.607-5.674-4.885-11.264-6.037-17.616zm28.693-71.38c-14.105 27.065-11.595 56.363-2.476 82.827 7.968 23.124 30.338 38.33 54.926 39.772 47.772 2.798 90.665-30.476 103.946-75.274 6.609-22.293 4.957-48.795-13.597-66.237-17.391-16.348-42.189-16.11-63.458-9.773-18.418 5.49-33.292 18.39-42.549 35.254-6.693 12.192-7.241 26.655-1.703 39.465 2.891 6.685 8.406 12.64 14.709 15.816 11.605 5.843 25.438 5.755 38.188.638 9.15-3.672 17.114-9.261 23.133-16.758 8.546-10.646 13.027-25.048 4.487-37.656-10.035-14.817-33.288-9.625-40.315 5.81-3.414 7.497 4.007 17.11 12.579 15.325 8.48-1.764 8.425-9.438 8.124-17.117-.068-1.7 2.721-4.106 5.267-2.734 7.458 4.018 9.643 11.39 7.061 18.917-4.171 12.166-17.181 16.279-29.073 13.035-14.51-3.958-24.448-17.677-18.651-31.848 8.244-20.153 34.37-22.75 53.962-17.482 9.068 2.437 16.797 8.267 20.687 17.28 5.567 12.902 8.01 27.424-.538 39.383-20.632 28.864-57.686 44.12-90.854 30.846-22.675-9.075-40.233-36.438-30.863-61.189 10.772-28.458 37.029-44.479 63.415-57.609 9.037-4.497 19.504-3.3 29.488-4.33 15.553-1.605 30.122 4.197 42.344 13.537 17.627 13.474 33.212 31.531 33.678 54.444.013.64-1.28 5.26 1.094 5.442 11.931.92 15.208-11.687 18.149-19.578 4.79-12.849 1.151-26.934-5.4-39.332-11.043-20.9-31.249-35.908-54.467-39.348-55.822-8.27-114.476 17.015-141.293 68.474zm258.296 80.12c11.845-17.787 27.427-33.298 49.366-30.904 5.024-9.073 12.644-21.72 23.029-12.548 2.912 2.573-.854 7.435-2.977 11.464-4.251 8.069.59 16.003 9.71 18.607 5.682 1.623 12.117-3.217 11.239-8.528-.569-3.45-6.038-2.574-7.907-4.9-2.501-3.11.929-7.292 4.13-7.905 13.567-2.592 25.839-.877 38.462 3.81.592-2.33 4.62-1.005 3.978-2.73-7.688-20.645-40.708-5.803-40.875-13.582-.081-3.785 4.362-6.036 10.156-6.4 2.207-.14 2.104-3.563.05-3.478-14.383.596-29.379 2.962-42.591-.72-10.962-3.058-1.364-18.31 7.164-21.497 6.349-2.374 13.986.422 20.326-1.402 8.01-2.303-.26-8.72-4.377-10.696-7.354-3.528-15.262-1.036-21.392 4.77-4.132 3.912-12.355-4.568-16.195-1.195-8.097 7.112-16.454 12.78-26.109 16.745-10.004 4.108-25.59-3.812-29.023 5.352-12.634 33.726-41.415 66.765-79.267 58.578-6.224 10.035-10.779 20.657-18.999 29.942-.772.873-1.031 3.482 1.225 4.059 22.042 5.633 43.357 6.427 64.93 1.603 17.776-3.976 34.826-11.747 45.947-28.445zm-42.104-40.974c7.086-12.042 15.422-27.512 5.394-40.39-8.286 9.354-2.175 23.562-10.784 32.257-6.207 6.268-9.636 13.983-18.805 16.996-5.487 1.802-11.387.43-16.185 3.104-3.293 1.836-3.32 6.46-4.683 9.975 18.632 6.308 35.631-5.915 45.063-21.942zm146.387-25.809c29.692.78 59.343.26 89.037.26-.526 2.497 1.842 3.615 3.105 4.073 4.625 1.673 10.605.59 12.844-4.247 2.936-6.34-1.995-11.657-8.581-12.907-3.195-.606-6.189 2.72-7.496 2.844-39.62 3.812-78.124-1.403-118.159 3.707-1.984.253-6.004-.149-5.703 4.721.545 8.88 23.526 1.25 34.953 1.55zm26.916 44.81c-.766 5.904 6.77 8.683 9.888 6.889 6.276-3.61 8.062-10.558.172-14.074-5.243-2.337-9.377 1.929-10.06 7.185zm-28.549-80.213c1.155-3.605-3.079-2.528-4.527-4.222-.83-.97-2.343.148-2.583 1.333-.705 3.496-.609 8.261 2.786 8.196 1.431-.027 3.562-2.925 4.324-5.307z" fill-rule="nonzero"/></svg>