<svg version="1.1" id="Слой_1" xmlns="http://www.w3.org/2000/svg" xmlns:xlink="http://www.w3.org/1999/xlink" x="0px" y="0px" viewBox="0 0 28.4 28.9" style="enable-background:new 0 0 28.4 28.9;" xml:space="preserve" width="40"  height="41" >
<style type="text/css" fill="#253E9B">
	.st0{clip-path:url(#SVGID_2_);}
</style>
<polygon points="3,0.1 3,23.6 9,23.6 9,4.6 19.4,4.6 19.4,23.6 25.4,23.6 25.4,0.1 " fill="#253E9B"></polygon>
<polygon points="18.8,21.2 18.8,5.2 9.7,5.2 9.7,21.2 10.5,21.2 10.5,6.1 18,6.1 18,21.2 " fill="#253E9B"></polygon>
<polygon points="17.3,19.1 17.3,6.7 11.1,6.7 11.1,19.1 12,19.1 12,7.6 16.5,7.6 16.5,19.1 " fill="#253E9B"></polygon>
<polygon points="15.8,16.7 15.8,8.2 12.6,8.2 12.6,16.7 13.3,16.7 13.3,9.2 15.1,9.2 15.1,16.7 " fill="#253E9B"></polygon>
<g fill="#253E9B">
	<defs>
		<rect id="SVGID_1_" y="0.1" width="28.3" height="28.8"></rect>
	<rect id="SVGID_1_" y="0.1" width="28.3" height="28.8"></rect></defs>
	<clipPath id="SVGID_2_" fill="#253E9B">
		<use xlink:href="#SVGID_1_" style="overflow:visible;"></use>
	</clipPath>
	<path class="st0" d="M7.2,25.4v0.6h0H6.7v1h0.5v0.6H6.7v1.2H6.1v-3.4H7.2z M4.9,26v2.8h0.6v-3.4H3.1v3.4h0.6V26H4.9z M7.2,27.5V27
		h0.1c0.5,0,0.5-0.4,0.5-0.5c0-0.3-0.1-0.5-0.5-0.5v-0.6h0.2c0.6,0,0.9,0.4,0.9,1.1c0,0.3-0.1,1.1-0.9,1.1H7.2z M10.1,25.3v0.6
		c-0.3,0-0.8,0.2-0.8,1.2c0,1,0.5,1.2,0.8,1.2v0.6c-0.4,0-1.4-0.2-1.4-1.8C8.7,25.5,9.7,25.3,10.1,25.3 M24.7,26h0.9v-0.6h-2.4V26
		h0.9v2.8h0.6V26z M21.1,27.6l0.3-0.3l0.9,1.5h0.8l-1.3-2l1.2-1.4h-0.8l-1.1,1.4v-1.4h-0.6v3.4h0.6V27.6z M19.9,25.4h-2.1v3.4H20
		v-0.6h-1.6v-0.9h1.4v-0.6h-1.4V26h1.5V25.4z M16.6,26v2.8h0.6v-3.4h-2.3v3.4h0.6V26H16.6z M14.4,26.5c0-0.5-0.4-1.2-1.3-1.2
		c-0.8,0-1.3,0.6-1.3,1.8c0,1.2,0.6,1.8,1.3,1.8c0.7,0,1.1-0.5,1.3-1.3h-0.6c-0.1,0.4-0.3,0.6-0.6,0.6c-0.5,0-0.7-0.5-0.7-1.2
		c0-1,0.4-1.2,0.7-1.2c0.5,0,0.6,0.4,0.6,0.6H14.4z M10.1,28.9v-0.6c0.3,0,0.8-0.2,0.8-1.2c0-1-0.5-1.2-0.8-1.2v-0.6
		c0.4,0,1.4,0.2,1.4,1.8C11.5,28.7,10.4,28.9,10.1,28.9" fill="#253E9B"></path>
	<path class="st0" d="M0.9,26.2c0.5,0,0.9,0.4,0.9,0.8c0,0.5-0.4,0.8-0.9,0.8c-0.5,0-0.9-0.4-0.9-0.8C0,26.6,0.4,26.2,0.9,26.2" fill="#253E9B"></path>
	<path class="st0" d="M27.5,26.2c0.5,0,0.9,0.4,0.9,0.8c0,0.5-0.4,0.8-0.9,0.8c-0.5,0-0.9-0.4-0.9-0.8C26.6,26.6,27,26.2,27.5,26.2" fill="#253E9B"></path>
</g>
</svg>