<svg xmlns:xlink="http://www.w3.org/1999/xlink" width="280" height="71" viewBox="0 0 280 71" fill="none" xmlns="http://www.w3.org/2000/svg" class="logo">
    <path d="M46.5593 55.0455C44.4649 57.75 41.8872 59.6591 39.3095 60.6136C36.7319 61.5682 34.3153 62.0455 31.8987 62.0455C24.0046 62.0455 18.2048 59.5 14.6605 54.5682C11.2773 49.6364 9.50518 43.1136 9.50518 34.6818C9.50518 28.9545 10.4718 24.1818 12.4051 20.2045C14.3383 16.0682 17.0771 13.2045 20.2992 11.1364C23.6824 9.22727 27.5489 8.11364 31.5765 8.11364C35.7652 8.11364 39.7929 9.06818 43.3372 11.1364C47.0426 13.0455 49.4591 16.8636 50.5869 21.9545H59.4476C59.4476 18.1364 57.5144 14.3182 55.42 11.2955C53.3257 8.11364 49.9425 5.25 45.9148 3.18182C41.8872 1.11364 37.2152 0.159091 31.5765 0.159091C26.7434 0.159091 22.2324 0.954545 18.3659 2.70455C14.4994 4.29545 11.2773 6.68182 8.37744 9.86364C5.63866 12.8864 3.5443 16.5455 2.09436 20.8409C0.805523 25.1364 0 29.75 0 35C0 41.2045 0.805524 46.2955 2.41657 50.75C4.18872 55.3636 6.44419 59.0227 9.34407 61.8864C12.0829 64.75 15.4661 66.8182 19.1715 68.25C22.7158 69.5227 26.5823 70.1591 30.6099 70.1591C33.6709 70.1591 37.3763 69.6818 41.2428 68.5682C45.2704 67.4545 49.1369 65.0682 53.0034 61.0909C56.7089 57.1136 59.2865 51.3864 60.4143 44.2273H51.5535C50.4258 48.5227 48.8147 52.3409 46.5593 55.0455ZM198.159 35.1591H207.825V33.5682H198.159V35.1591ZM202.992 21.1591C201.542 21.1591 200.253 21.6364 199.287 22.4318C198.32 23.2273 197.837 24.6591 197.837 26.5682C197.837 28.4773 198.32 29.9091 199.287 30.7045C200.253 31.5 201.542 31.9773 202.992 31.9773C204.442 31.9773 205.57 31.5 206.697 30.7045C207.664 29.9091 208.147 28.4773 208.147 26.5682C208.147 24.6591 207.664 23.2273 206.697 22.4318C205.731 21.6364 204.442 21.1591 202.992 21.1591ZM205.731 28.1591C205.57 28.7955 205.247 29.2727 204.925 29.5909C204.442 30.0682 203.797 30.2273 203.153 30.2273C202.025 30.2273 201.22 29.75 200.898 29.1136C200.414 28.3182 200.253 27.5227 200.253 26.5682C200.253 25.6136 200.414 24.8182 200.898 24.0227C201.381 23.2273 202.025 22.9091 203.314 22.9091C204.442 22.9091 205.247 23.3864 205.731 24.0227C206.214 24.8182 206.375 25.6136 206.375 26.5682C206.053 27.0455 205.892 27.6818 205.731 28.1591ZM270.978 44.0682C270.011 48.5227 268.4 52.3409 266.306 55.0455C264.212 57.75 261.634 59.6591 259.056 60.6136C256.479 61.5682 254.062 62.0455 251.646 62.0455C243.751 62.0455 237.952 59.5 234.407 54.5682C231.024 49.4773 229.091 43.1136 229.091 34.5227C229.091 28.7955 230.058 24.0227 231.991 20.0455C233.924 15.9091 236.663 13.0455 239.885 10.9773C243.268 9.06818 247.135 7.95455 251.162 7.95455C255.351 7.95455 259.379 8.90909 262.923 10.9773C266.628 12.8864 269.045 16.7045 270.173 21.7955H279.033C279.033 17.9773 277.1 14.1591 275.006 11.1364C272.911 7.95455 269.528 5.09091 265.501 3.02273C261.473 0.954545 256.64 0 251.162 0C246.329 0 241.818 0.795455 237.952 2.54545C234.085 4.13636 230.863 6.52273 227.963 9.70455C225.224 12.7273 223.13 16.3864 221.68 20.6818C220.23 24.9773 219.425 29.75 219.425 34.8409C219.425 41.0455 220.23 46.1364 221.841 50.5909C223.613 55.2045 225.869 58.8636 228.769 61.7273C231.507 64.5909 234.891 66.6591 238.596 68.0909C242.14 69.3636 246.007 70 250.035 70C253.095 70 256.801 69.5227 260.667 68.4091C264.695 67.2955 268.562 64.9091 272.428 60.9318C276.133 56.9545 278.711 51.2273 279.839 44.0682H270.978ZM130.011 1.90909L107.618 60.2955H69.7583V38.3409H106.812V30.3864H69.7583V10.0227H110.035V2.06818H60.5754V68.5682H104.557H114.062L121.151 49.1591H148.377L155.144 68.5682H165.132L140.322 1.90909H130.011ZM123.89 41.2045L134.845 11.7727H135.006L144.994 41.2045H123.89ZM209.597 1.90909V68.4091H218.78V1.90909H209.597ZM192.681 41.0455L180.921 22.4318H177.215V29.5909H174.154V1.90909H164.971V68.4091H174.154V37.5455H177.215V45.5H180.276V26.8864L192.198 45.5H195.742V22.4318H192.681V41.0455Z" fill="#000"></path></svg>